<svg width="500" height="125" viewBox="0 0 500 125" fill="none" xmlns="http://www.w3.org/2000/svg">
<path fill-rule="evenodd" clip-rule="evenodd" d="M43.1124 10.1438V60.423L35.5043 52.8948V12.5955H34.9115C34.5857 12.5955 33.5871 12.8739 32.6925 13.2137L31.0663 13.8318V48.3769L23.4861 40.876L23.1412 18.1152L19.0202 21.5845V36.3308L15.2326 32.5832C13.1499 30.522 11.3633 28.9618 11.2631 29.1158C11.1636 29.2705 10.5289 30.0516 9.85372 30.8524L8.6263 32.3087L44.0552 67.754H33.2745L19.3372 53.8059C7.87847 42.3387 5.50464 39.849 4.59352 40.3019C4.28205 40.4567 4.14152 40.9554 3.86742 41.5569L3.09333 43.2561L27.5672 67.754H16.7821L0.968113 51.902L0.528751 53.0128C0.287195 53.6233 0.0691113 54.8305 0.0443851 55.6946L0 57.2663L10.4332 67.754H0V68.9701C0 69.6389 0.17308 70.6375 0.384838 71.1891L0.769676 72.1921H50.3635L42.8353 79.8002H22.6854C11.6036 79.8002 2.53602 79.9567 2.53602 80.1488C2.53602 80.3403 2.97159 81.3389 3.50352 82.3679L4.47039 84.2382H38.3174L30.7892 91.8463H19.8323C8.40629 91.8463 8.17232 91.9033 10.1086 94.2238L11.2986 95.6503H26.9053L23.2801 99.3142C19.1818 103.456 19.0068 103.966 21.2696 105.177L22.8857 106.042L58.3285 70.6153V81.375L29.6233 110.101L33.2853 112.06L58.3285 87.1033V97.8883L50.4035 105.794C44.405 111.778 42.5228 113.596 42.8771 114.322C43.0512 114.678 43.765 114.771 44.7957 114.964L47.1136 115.399L58.3285 104.236V115.452L59.7551 115.07C60.5393 114.86 61.3952 114.684 61.6571 114.679C61.9189 114.674 62.1326 103.339 62.1326 89.4884V64.3069L69.7407 71.8351V112.134H70.7335C71.2794 112.134 72.2779 111.839 72.9525 111.478L74.1787 110.822V76.3531L81.7868 83.8813V95.1551C81.7868 101.355 81.9408 106.428 82.1291 106.428C82.3181 106.428 83.3166 105.804 84.3481 105.041L86.2248 103.654V88.3992L89.8887 92.0244C92.5142 94.6224 93.458 95.591 94.1371 95.4317C94.5536 95.3339 94.8705 94.8118 95.4147 93.981L96.509 92.3116L61.1898 56.9759H71.9495L100.609 85.6146L102.273 81.5957L77.6778 56.9759H88.4629L104.241 72.7919L104.733 72.0165C105.004 71.5898 105.23 70.3909 105.235 69.3524L105.245 67.4637L94.8118 56.9759H105.326L104.928 52.8549L54.896 52.5227L62.4097 44.9298H82.5596C93.6414 44.9298 102.709 44.8005 102.709 44.6426C102.709 44.4848 102.378 43.6288 101.973 42.7406L101.237 41.1258H66.2936L73.8218 33.5177H96.3689L96.348 32.7252C96.3359 32.2896 95.7913 31.2911 95.1364 30.5062L93.9464 29.0797H78.3397L81.9649 25.4158C86.0631 21.2744 86.2381 20.7641 83.9754 19.5531L82.3593 18.6883L46.9164 54.1147V43.989L75.7637 15.0694L74.5331 14.1495C72.309 12.4871 71.455 13.1122 59.1267 25.4278L46.9164 37.6267V26.8416L54.8415 18.9356C60.8974 12.894 62.743 11.0901 62.3943 10.4085C62.2333 10.0938 61.6044 10.0185 60.7061 9.87564L58.6456 9.54785L46.9672 21.0792L46.5994 9.7425L43.1124 10.1438ZM58.3285 57.0982H46.9164V67.8763H58.3285V57.0982Z" fill="url(#paint0_linear_25_154)"/>
<path d="M155.814 15.2315L152.048 21.7364C148.91 19.7963 145.087 18.3413 140.722 18.3413C136.243 18.3413 133.076 20.1102 133.076 23.1344C133.076 26.073 136.528 26.9574 141.321 27.7563L143.575 28.1272C150.708 29.2969 156.299 32.3496 156.299 39.311C156.299 48.1269 148.539 52.3208 139.952 52.3208C133.903 52.3208 127.398 50.552 123.119 47.0998L127.256 40.6805C130.137 42.9914 134.845 44.9885 139.98 44.9885C144.402 44.9885 147.826 43.2482 147.826 40.1669C147.826 37.3995 144.916 36.3724 139.353 35.488L136.813 35.0885C129.766 33.9759 124.631 30.8661 124.631 23.6479C124.631 15.3171 132.049 10.9805 140.551 10.9805C146.143 10.9805 150.793 12.2358 155.814 15.2315Z" fill="white"/>
<path d="M162.42 11.6652H178.739C188.04 11.6652 193.889 15.1174 193.889 22.7349C193.889 26.7577 191.435 29.9816 188.097 31.2084C191.749 32.4352 194.744 35.8589 194.744 40.1669C194.744 47.8416 189.295 51.6076 179.709 51.6076H162.42V11.6652ZM179.31 35.003H170.38V44.5891L179.31 44.6177C183.703 44.6177 186.471 43.5906 186.471 39.7675C186.471 36.03 183.703 35.003 179.31 35.003ZM178.511 18.6836H170.38V28.013H178.539C182.505 28.013 185.586 27.1857 185.586 23.3055C185.586 19.5395 182.448 18.6836 178.511 18.6836Z" fill="white"/>
<path d="M229.859 44.1612V51.6076H200.786V11.6652H208.746V44.1612H229.859Z" fill="white"/>
<path d="M265.651 11.6652L250.644 51.6076H240.972L225.965 11.6652H234.439L245.88 43.5335L257.377 11.6652H265.651Z" fill="white"/>
<path d="M144.003 61.9234C151.364 61.9234 157.869 65.29 161.121 70.8819L154.274 75.0759C152.02 71.6237 148.397 69.5695 143.946 69.5695C136.699 69.5695 131.336 74.8761 131.336 82.6364C131.364 90.6534 136.899 95.7032 143.946 95.7032C148.368 95.7032 151.963 93.7061 154.359 90.2254L160.864 94.9044C157.327 100.097 151.307 103.349 144.003 103.349C131.706 103.349 123.033 94.6476 123.033 82.6364C123.033 70.6251 131.706 61.9234 144.003 61.9234Z" fill="white"/>
<path d="M192.743 74.9617V102.608H185.468V99.5548C183.671 101.78 180.989 103.321 177.194 103.321C169.577 103.321 163.814 97.0727 163.814 88.7704C163.814 80.4681 169.577 74.22 177.194 74.22C180.989 74.22 183.642 75.7606 185.468 78.0145V74.9617H192.743ZM178.564 81.1528C174.199 81.1528 171.431 84.5479 171.431 88.7704C171.431 92.9929 174.199 96.388 178.564 96.388C182.815 96.388 185.696 93.1355 185.696 88.7704C185.696 84.4053 182.815 81.1528 178.564 81.1528Z" fill="white"/>
<path d="M214.955 74.22C222.601 74.22 228.364 80.4681 228.364 88.7704C228.364 97.0727 222.601 103.321 214.983 103.321C211.274 103.321 208.649 101.866 206.852 99.726V114.02H199.434V74.9617H206.709V78.0145C208.507 75.7606 211.16 74.22 214.955 74.22ZM213.585 81.1528C209.363 81.1528 206.481 84.4053 206.481 88.7704C206.481 93.1355 209.363 96.388 213.585 96.388C217.979 96.388 220.718 92.9929 220.718 88.7704C220.718 84.5479 217.979 81.1528 213.585 81.1528Z" fill="white"/>
<path d="M240.733 74.9617V102.608H233.287V74.9617H240.733ZM236.967 61.1246C239.649 61.1246 241.732 63.2358 241.732 65.9176C241.732 68.5995 239.649 70.6537 236.967 70.6537C234.286 70.6537 232.231 68.5995 232.231 65.9176C232.231 63.2358 234.286 61.1246 236.967 61.1246Z" fill="white"/>
<path d="M267.471 74.9617V81.5808H257.457V91.6805C257.457 95.1326 259.283 96.388 261.594 96.388C263.362 96.388 265.274 95.5035 266.786 94.5906L269.525 100.411C267.1 102.065 264.304 103.321 260.367 103.321C253.52 103.321 250.01 99.4407 250.01 92.2796V81.5808H244.675V74.9617H250.01V66.745H257.457V74.9617H267.471Z" fill="white"/>
<path d="M299.792 74.9617V102.608H292.517V99.5548C290.719 101.78 288.038 103.321 284.243 103.321C276.625 103.321 270.862 97.0727 270.862 88.7704C270.862 80.4681 276.625 74.22 284.243 74.22C288.038 74.22 290.691 75.7606 292.517 78.0145V74.9617H299.792ZM285.612 81.1528C281.247 81.1528 278.48 84.5479 278.48 88.7704C278.48 92.9929 281.247 96.388 285.612 96.388C289.863 96.388 292.745 93.1355 292.745 88.7704C292.745 84.4053 289.863 81.1528 285.612 81.1528Z" fill="white"/>
<path d="M313.929 61.524V102.608H306.483V61.524H313.929Z" fill="white"/>
<path d="M353.367 61.9234C359.7 61.9234 364.978 64.2058 368.516 68.0574L362.782 73.6779C360.528 71.0816 357.218 69.4839 353.138 69.4839C345.835 69.4839 340.528 74.8476 340.528 82.6364C340.528 90.796 346.091 95.903 352.996 95.903C359.501 95.903 363.295 92.7646 364.351 87.0871H354.194V80.4396H372.567C372.653 81.2099 372.682 81.9517 372.682 82.6934C372.682 94.7903 364.493 103.321 353.167 103.321C342.097 103.321 332.283 95.5321 332.283 82.6364C332.283 70.5681 341.099 61.9234 353.367 61.9234Z" fill="white"/>
<path d="M393.07 74.22C394.667 74.22 395.923 74.4482 396.95 74.8191L395.837 82.2084C394.61 81.6664 392.841 81.324 391.329 81.324C387.877 81.324 385.509 83.4352 385.509 87.5436V102.608H378.063V74.9617H385.281V77.9859C387.021 75.3897 389.674 74.22 393.07 74.22Z" fill="white"/>
<path d="M413.145 74.22C421.761 74.22 428.123 80.4396 428.123 88.7704C428.123 97.1012 421.761 103.321 413.145 103.321C404.557 103.321 398.223 97.1012 398.223 88.7704C398.223 80.4396 404.557 74.22 413.145 74.22ZM413.145 81.1528C408.951 81.1528 405.812 84.2911 405.812 88.7704C405.812 93.2496 408.951 96.388 413.145 96.388C417.339 96.388 420.505 93.2496 420.505 88.7704C420.505 84.2911 417.339 81.1528 413.145 81.1528Z" fill="white"/>
<path d="M458.998 74.9617V90.8246C458.998 99.5548 452.835 103.321 445.931 103.321C438.998 103.321 432.835 99.5548 432.835 90.8246V74.9617H440.282V90.1684C440.282 94.5906 442.707 96.388 445.931 96.388C449.126 96.388 451.58 94.5906 451.58 90.1684V74.9617H458.998Z" fill="white"/>
<path d="M480.988 74.22C488.634 74.22 494.397 80.4681 494.397 88.7704C494.397 97.0727 488.634 103.321 481.017 103.321C477.308 103.321 474.683 101.866 472.886 99.726V114.02H465.468V74.9617H472.743V78.0145C474.54 75.7606 477.194 74.22 480.988 74.22ZM479.619 81.1528C475.396 81.1528 472.515 84.4053 472.515 88.7704C472.515 93.1355 475.396 96.388 479.619 96.388C484.012 96.388 486.751 92.9929 486.751 88.7704C486.751 84.5479 484.012 81.1528 479.619 81.1528Z" fill="white"/>
<defs>
<linearGradient id="paint0_linear_25_154" x1="52.6628" y1="9.54785" x2="52.6628" y2="115.452" gradientUnits="userSpaceOnUse">
<stop stop-color="#5992FF"/>
<stop offset="1" stop-color="#002D85"/>
</linearGradient>
</defs>
</svg>
